<svg version="1.1" id="Layer_1" xmlns="http://www.w3.org/2000/svg" xmlns:xlink="http://www.w3.org/1999/xlink" x="0px" y="0px"
	 width="100%" viewBox="0 0 500 500" enable-background="new 0 0 500 500" xml:space="preserve">
<path fill="#161522" opacity="1.000000" stroke="none" 
	d="
M345.000000,501.000000 
	C230.000031,501.000000 115.500053,501.000000 1.000062,501.000000 
	C1.000041,334.333405 1.000041,167.666794 1.000021,1.000151 
	C167.666550,1.000101 334.333099,1.000101 500.999756,1.000050 
	C500.999817,167.666519 500.999817,334.333038 500.999908,500.999786 
	C449.166656,501.000000 397.333344,501.000000 345.000000,501.000000 
M122.616745,276.173187 
	C122.363686,276.324432 122.163460,276.527710 121.088921,276.942352 
	C116.449432,276.947815 111.797882,277.167511 107.173347,276.907318 
	C100.647797,276.540100 95.165977,278.524139 89.877861,283.160431 
	C88.168694,283.623718 86.104675,283.933868 88.285957,286.914062 
	C82.930435,300.727295 90.354530,312.660370 105.017014,313.550568 
	C109.961136,313.850739 114.937973,313.612091 120.482727,314.074554 
	C123.104431,315.044983 125.966301,319.963623 129.040710,313.627197 
	C132.819412,314.506683 137.335526,311.565491 140.415161,316.211609 
	C150.061081,330.764069 162.761917,342.157990 177.755905,350.903625 
	C197.400253,362.361694 218.398300,368.049316 241.272247,364.130371 
	C248.179276,362.946991 255.001190,361.266907 262.239777,359.734375 
	C261.682739,375.909515 263.533234,392.165344 249.756210,404.094391 
	C252.709396,409.936523 255.520569,415.497772 258.011597,420.425690 
	C275.577911,419.334473 293.501160,425.772400 308.617157,412.816528 
	C308.928833,414.685883 309.102509,415.727478 309.505005,418.141479 
	C315.043304,411.516205 319.506134,405.367706 324.809631,400.059082 
	C330.195312,394.668182 336.410400,390.105927 342.262238,385.180756 
	C341.952026,384.462006 341.641785,383.743286 341.331543,383.024536 
	C327.629303,384.318817 313.927032,385.613129 300.173401,386.912292 
	C300.471802,385.717743 300.999695,384.458191 301.074615,383.172272 
	C301.818298,370.408478 302.676270,357.646027 303.058929,344.869904 
	C303.170227,341.153656 304.235413,339.037445 307.271729,336.760956 
	C315.769226,330.390045 323.733215,323.312134 332.112976,316.776306 
	C334.129120,315.203827 336.926697,313.809998 339.389587,313.767578 
	C355.038757,313.498047 370.699524,313.842834 386.345856,313.500885 
	C391.029907,313.398529 395.680084,311.747955 401.213074,310.889343 
	C404.382843,311.087494 405.169800,309.286682 405.021423,305.946991 
	C405.963135,304.297913 406.904846,302.648834 408.426941,300.932800 
	C408.781250,300.658783 409.135529,300.384735 409.489838,300.110718 
	C409.059235,299.740417 408.628632,299.370117 408.090179,298.103943 
	C408.376770,286.008118 404.759125,280.921143 392.874084,276.267944 
	C391.915802,276.440399 390.957489,276.612885 389.073883,276.943115 
	C380.044159,276.889587 371.014404,276.836029 361.739258,276.445099 
	C361.542725,276.239563 361.309479,276.092102 361.025177,275.270813 
	C363.706329,267.080353 366.782288,258.990875 368.914276,250.659882 
	C370.111023,245.983414 371.665710,242.606964 375.924103,239.664474 
	C384.882446,233.474396 383.530975,222.410355 373.810089,217.679214 
	C372.950867,217.261032 372.094788,216.836426 371.274078,216.432907 
	C371.171722,214.584702 371.134247,212.918945 370.979675,211.264099 
	C368.583649,185.613327 360.644379,162.096527 343.059937,142.760406 
	C320.176849,117.597755 290.789978,107.097878 257.437164,106.536736 
	C239.257462,106.230873 222.411789,111.872833 205.266632,119.053299 
	C194.049423,117.236404 189.298584,120.161377 186.979324,130.177475 
	C183.994614,132.345764 181.009903,134.514038 177.274994,136.863968 
	C171.245239,140.528061 164.474136,138.220642 158.196243,138.554031 
	C148.122635,139.088989 137.876938,137.487244 127.782372,136.182007 
	C119.358109,135.092743 107.663750,144.205643 108.582657,155.056671 
	C113.471748,151.390167 118.274956,148.661316 121.837303,144.790482 
	C123.989174,142.452255 125.183609,141.583206 128.266403,142.462540 
	C139.142288,145.564819 150.112289,148.337204 160.781921,151.820953 
	C136.333740,177.241989 122.739372,207.508530 121.292244,242.779434 
	C120.839653,253.810593 122.382462,264.923615 122.616745,276.173187 
z"/>
<path fill="#FBFBFC" opacity="1.000000" stroke="none" 
	d="
M361.984680,276.782471 
	C371.014404,276.836029 380.044159,276.889587 389.905884,276.948303 
	C391.491882,276.930634 392.245911,276.907715 392.999939,276.884827 
	C404.759125,280.921143 408.376770,286.008118 408.028625,298.874115 
	C407.926880,300.096100 407.886749,300.547943 407.846619,300.999756 
	C406.904846,302.648834 405.963135,304.297913 404.635559,306.423340 
	C402.948395,308.201996 401.647095,309.504364 400.345825,310.806702 
	C395.680084,311.747955 391.029907,313.398529 386.345856,313.500885 
	C370.699524,313.842834 355.038757,313.498047 339.389587,313.767578 
	C336.926697,313.809998 334.129120,315.203827 332.112976,316.776306 
	C323.733215,323.312134 315.769226,330.390045 307.271729,336.760956 
	C304.235413,339.037445 303.170227,341.153656 303.058929,344.869904 
	C302.676270,357.646027 301.818298,370.408478 301.074615,383.172272 
	C300.999695,384.458191 300.471802,385.717743 300.173401,386.912292 
	C313.927032,385.613129 327.629303,384.318817 341.331543,383.024536 
	C341.641785,383.743286 341.952026,384.462006 342.262238,385.180756 
	C336.410400,390.105927 330.195312,394.668182 324.809631,400.059082 
	C319.506134,405.367706 315.043304,411.516205 309.505005,418.141479 
	C309.102509,415.727478 308.928833,414.685883 308.617157,412.816528 
	C293.501160,425.772400 275.577911,419.334473 258.011597,420.425690 
	C255.520569,415.497772 252.709396,409.936523 249.756210,404.094391 
	C263.533234,392.165344 261.682739,375.909515 262.239777,359.734375 
	C255.001190,361.266907 248.179276,362.946991 241.272247,364.130371 
	C218.398300,368.049316 197.400253,362.361694 177.755905,350.903625 
	C162.761917,342.157990 150.061081,330.764069 140.415161,316.211609 
	C137.335526,311.565491 132.819412,314.506683 128.571716,313.243042 
	C129.743210,308.690216 128.091187,302.572968 134.902786,301.426270 
	C135.348831,301.351196 135.997925,300.447693 135.978867,299.951569 
	C135.720520,293.225952 140.921158,290.565460 145.309021,287.338165 
	C150.149536,283.777924 155.062546,280.316254 160.390717,276.874512 
	C163.232346,276.937347 165.627228,276.937347 168.065323,276.937347 
	C167.667969,274.515350 167.359787,272.636780 167.451660,270.813049 
	C168.580368,271.323883 169.255005,271.946167 170.048080,272.203766 
	C172.166901,272.892029 174.319397,273.646820 176.501694,273.815033 
	C176.901794,273.845886 177.505112,271.239929 178.354706,269.969849 
	C180.880188,277.052826 186.213806,277.151337 192.323257,277.070770 
	C213.764572,276.787903 235.211899,276.960999 256.656952,276.960999 
	C258.422272,276.960999 260.187561,276.960999 261.803589,276.960999 
	C261.803589,268.783722 261.803589,261.226105 261.803589,253.358170 
	C243.687592,253.934311 225.938004,254.562103 208.184372,255.038971 
	C198.041672,255.311386 193.568192,251.079071 193.161591,240.744385 
	C197.590286,236.730164 201.385559,232.200089 206.210297,229.530869 
	C211.052444,226.852020 214.227264,223.530869 216.364716,218.401169 
	C218.188354,217.246002 219.693253,216.246094 221.540710,215.018585 
	C224.097565,217.946701 226.552719,220.758347 228.164093,222.603699 
	C231.696609,221.098068 234.136673,219.210449 236.634750,219.130264 
	C253.408157,218.591904 270.193207,218.382095 286.975861,218.180237 
	C296.710693,218.063126 306.448120,218.158951 316.337158,218.158951 
	C312.474213,187.143341 288.515656,158.821503 253.760193,150.336151 
	C250.939529,144.844482 246.794632,141.815781 241.034409,140.426254 
	C238.470718,139.807816 236.253174,137.754364 234.337265,136.307068 
	C270.511749,134.972382 320.438568,161.291931 329.394470,216.401337 
	C339.180908,216.401337 348.912628,216.401337 359.552246,216.401337 
	C358.266113,208.516846 357.528290,201.243164 355.850586,194.193146 
	C349.190002,166.204208 334.076569,144.449768 308.025269,131.134445 
	C280.558990,117.095917 252.285080,114.403038 222.721970,125.383469 
	C220.378815,124.639946 218.431213,123.975143 216.483612,123.310349 
	C216.698822,124.819656 216.914032,126.328964 216.757599,127.957397 
	C214.460175,128.928604 212.534393,129.780685 210.638000,130.204712 
	C211.432709,125.255150 208.757416,122.238335 206.056290,119.232819 
	C222.411789,111.872833 239.257462,106.230873 257.437164,106.536736 
	C290.789978,107.097878 320.176849,117.597755 343.059937,142.760406 
	C360.644379,162.096527 368.583649,185.613327 370.979675,211.264099 
	C371.134247,212.918945 371.171722,214.584702 371.274078,216.432907 
	C372.094788,216.836426 372.950867,217.261032 373.810089,217.679214 
	C383.530975,222.410355 384.882446,233.474396 375.924103,239.664474 
	C371.665710,242.606964 370.111023,245.983414 368.914276,250.659882 
	C366.782288,258.990875 363.706329,267.080353 360.917969,275.928619 
	C361.202087,276.651794 361.593384,276.717133 361.984680,276.782471 
M202.005569,288.965057 
	C200.617752,289.002930 199.229950,289.040802 197.253769,288.999237 
	C196.427414,288.487701 195.601044,287.976196 195.009338,286.688538 
	C196.940414,285.880585 198.871506,285.072601 201.199036,284.098755 
	C199.923004,283.741760 198.746490,283.158051 197.564621,283.147034 
	C196.122482,283.133545 194.659637,283.890991 193.233917,283.811310 
	C186.594894,283.440216 182.106766,287.410889 181.222992,294.196136 
	C179.329926,296.520538 179.000900,298.586395 182.166061,300.837189 
	C182.453003,305.189178 184.478165,308.069031 189.406815,309.488159 
	C192.972855,309.637726 196.538895,309.787292 200.787003,309.728119 
	C202.420044,308.210602 204.053085,306.693054 206.433990,305.171326 
	C207.321503,303.875580 208.693726,302.677856 208.980499,301.260559 
	C209.388580,299.243469 208.999481,297.065094 209.065582,294.210999 
	C207.349014,291.341248 205.632431,288.471497 203.915863,285.601746 
	C203.555359,285.865814 203.194855,286.129852 202.834351,286.393921 
	C202.834351,287.254791 202.834351,288.115692 202.005569,288.965057 
M339.841187,241.032639 
	C343.060394,241.186646 347.767212,238.171051 347.711517,245.130905 
	C353.906921,241.568436 359.939728,238.381332 365.643188,234.685837 
	C368.038818,233.133606 369.737610,230.505829 371.753174,228.367004 
	C368.857178,227.578796 365.948151,226.064850 363.067261,226.116699 
	C339.100861,226.548050 315.141113,227.333466 291.176361,227.880707 
	C271.552612,228.328827 251.925232,228.711380 232.298004,228.801483 
	C229.824631,228.812836 227.342255,226.866821 223.558487,225.280243 
	C218.652176,229.005432 212.082916,233.813828 205.767807,238.935562 
	C204.464050,239.992935 204.106827,242.217377 203.313339,243.903915 
	C205.008530,244.322922 206.711990,245.133377 208.397598,245.097824 
	C219.880966,244.855621 231.358444,244.318893 242.842072,244.108566 
	C252.425522,243.933029 262.014771,244.072571 272.166962,244.072571 
	C272.166962,255.004395 272.166962,265.897644 272.166962,276.730408 
	C280.006470,276.730408 287.277496,276.730408 295.426178,276.730408 
	C295.426178,265.449860 295.426178,254.384323 295.426178,242.866837 
	C310.198792,242.329346 324.112091,241.823120 337.997681,242.070892 
	C339.104767,244.829300 340.211853,247.587708 341.497925,250.792068 
	C339.027252,250.905228 336.102234,250.870483 333.231323,251.247635 
	C331.951141,251.415817 329.885559,252.215515 329.698456,253.064194 
	C327.972717,260.890076 326.580353,268.789459 325.035278,276.962097 
	C331.624542,276.962097 337.926880,276.996552 344.227966,276.922913 
	C345.118042,276.912537 346.550415,276.618683 346.805786,276.044281 
	C350.229340,268.344910 353.488159,260.572327 356.787903,252.817917 
	C356.341492,252.641510 355.895111,252.465088 355.448700,252.288681 
	C353.829224,253.017319 352.209747,253.745972 350.666412,254.440353 
	C350.067780,253.916962 349.651428,253.630478 349.331024,253.260803 
	C345.857147,249.253189 342.398376,245.232513 339.841187,241.032639 
M189.485641,313.646790 
	C177.829605,313.646790 166.173584,313.646790 154.517548,313.646790 
	C154.269135,314.243683 154.020721,314.840546 153.772308,315.437439 
	C160.509491,321.537415 166.836014,328.180664 174.057724,333.639709 
	C199.927505,353.195160 228.339294,358.376312 259.195374,347.242798 
	C260.402863,346.807098 261.908051,345.226746 262.013214,344.065521 
	C262.366241,340.167572 262.147339,336.217804 262.147339,332.103424 
	C242.706604,332.742920 225.289139,327.687714 209.337494,318.110443 
	C203.266113,314.465179 197.253662,313.073242 189.485641,313.646790 
M293.833801,325.512024 
	C293.833801,321.614410 293.833801,317.716766 293.833801,313.915161 
	C286.263031,313.915161 279.337341,313.915161 272.002655,313.915161 
	C272.002655,330.980499 272.098724,347.767700 271.975586,364.553314 
	C271.852814,381.289062 271.175201,397.920105 256.199219,411.441833 
	C266.397125,411.441833 274.978455,411.364685 283.557770,411.462555 
	C292.972290,411.569885 309.898254,403.018707 314.276825,396.072845 
	C304.427399,396.829224 294.283691,397.608246 282.980957,398.476257 
	C284.108856,396.396942 284.381073,395.662842 284.843079,395.078827 
	C290.214325,388.289459 292.608521,380.375946 292.896149,371.921234 
	C293.410858,356.790100 293.542023,341.645905 293.833801,325.512024 
M212.213806,301.434631 
	C212.213806,304.197571 212.213806,306.960510 212.213806,309.651825 
	C223.526245,310.759491 224.868820,309.583099 224.835556,299.192932 
	C224.827072,296.541718 224.862122,293.888702 224.775146,291.239838 
	C224.639740,287.116211 222.818542,284.681763 218.320435,284.938660 
	C216.410614,285.047729 214.489365,284.956848 212.213867,284.956848 
	C212.213867,290.562164 212.213867,295.507202 212.213806,301.434631 
M229.672531,285.102173 
	C229.310684,293.266357 228.948837,301.430573 228.568954,310.001556 
	C230.540710,310.001556 231.665588,309.995819 232.790421,310.002441 
	C239.711334,310.043335 241.050446,308.796570 241.131241,302.059845 
	C241.175095,298.404114 241.082260,294.746979 241.101471,291.090729 
	C241.122757,287.037048 239.335571,284.827850 235.093643,284.968048 
	C233.599319,285.017426 232.102310,284.985168 229.672531,285.102173 
M313.377380,270.904022 
	C314.793854,264.751953 316.210358,258.599915 317.623505,252.462296 
	C312.817963,252.462296 309.103943,252.462296 305.117493,252.462296 
	C305.117493,260.834290 305.117493,268.738007 305.117493,276.578247 
	C309.863647,278.040771 312.576660,276.569824 313.377380,270.904022 
M303.091888,285.169952 
	C295.558228,290.690643 302.553802,295.482422 304.475647,300.628662 
	C302.286407,300.900421 300.693451,301.098145 298.997131,301.308716 
	C299.069519,302.531738 298.912384,303.586456 299.221497,304.479919 
	C300.853516,309.197388 304.236145,311.296021 308.247467,309.922638 
	C312.589661,308.435944 312.582428,304.538635 311.837067,301.195770 
	C311.308197,298.823792 309.203705,296.792053 307.755310,294.640167 
	C306.798584,293.218689 305.758270,291.853455 304.621582,290.277527 
	C307.445557,291.156769 309.466217,291.785919 311.833527,292.522949 
	C311.269806,285.698578 310.228333,284.825043 303.091888,285.169952 
M296.640076,292.546967 
	C295.573944,284.856415 293.517212,283.674225 284.515137,285.629730 
	C284.515137,293.658478 284.515137,301.698364 284.515137,310.057373 
	C286.249695,309.930450 287.648895,309.828094 289.370605,309.702087 
	C289.370605,306.395660 289.370605,303.453979 289.370605,300.242493 
	C294.713623,300.715057 296.418488,297.749176 296.640076,292.546967 
M252.204681,290.109802 
	C254.276108,294.238922 251.167786,296.830231 249.370636,299.850220 
	C247.582809,302.854553 245.942352,305.946564 243.854889,309.684906 
	C249.509399,309.684906 253.721634,309.684906 258.252869,309.684906 
	C258.003235,307.951324 257.806335,306.584198 257.624481,305.321350 
	C255.527130,305.176544 253.926315,305.066010 251.793564,304.918762 
	C253.806808,301.789032 255.907516,299.219574 257.246185,296.300629 
	C260.252838,289.744781 257.105530,284.421692 250.822815,284.938171 
	C246.328659,285.307617 244.638245,288.391296 245.587631,294.733307 
	C246.999603,294.733307 248.441193,294.733307 249.780533,294.733307 
	C250.346924,293.067017 250.864334,291.544800 252.204681,290.109802 
M238.375153,317.112549 
	C246.104828,318.318970 253.834503,319.525360 261.950714,320.792114 
	C261.950714,317.482941 261.950714,315.720001 261.950714,313.842896 
	C251.111710,313.842896 240.496231,313.842896 229.880753,313.842896 
	C229.833466,314.063385 229.786194,314.283875 229.738907,314.504364 
	C232.351883,315.329254 234.964859,316.154175 238.375153,317.112549 
M269.013824,306.282837 
	C269.138489,299.212891 267.699463,291.957550 272.850983,285.245422 
	C268.077881,285.245422 264.663116,285.245422 259.999786,285.245422 
	C266.189972,293.006195 263.202972,301.535370 264.272369,310.146332 
	C266.266205,309.425995 269.281281,311.643097 269.013824,306.282837 
M280.187988,293.541779 
	C280.187988,290.765381 280.187988,287.988983 280.187988,284.830933 
	C278.186493,285.050690 276.814117,285.201355 275.470428,285.348877 
	C275.470428,293.703674 275.470428,301.632172 275.470428,309.722168 
	C277.106049,309.722168 278.481018,309.722168 280.188019,309.722168 
	C280.188019,304.465240 280.188019,299.497894 280.187988,293.541779 
M307.499969,313.639923 
	C303.460449,314.248169 302.627106,317.257935 304.857605,324.008728 
	C308.696960,320.869110 312.424408,317.820953 316.151886,314.772797 
	C315.995361,314.394653 315.838867,314.016510 315.682343,313.638367 
	C313.268219,313.638367 310.854126,313.638367 307.499969,313.639923 
z"/>
<path fill="#02BE64" opacity="1.000000" stroke="none" 
	d="
M178.014618,269.851135 
	C177.505112,271.239929 176.901794,273.845886 176.501694,273.815033 
	C174.319397,273.646820 172.166901,272.892029 170.048080,272.203766 
	C169.255005,271.946167 168.580368,271.323883 167.404007,270.466766 
	C165.738220,270.339386 164.036255,270.208496 163.400330,270.968994 
	C161.967880,272.682129 161.063324,274.836700 159.943970,276.811646 
	C155.062546,280.316254 150.149536,283.777924 145.309021,287.338165 
	C140.921158,290.565460 135.720520,293.225952 135.978867,299.951569 
	C135.997925,300.447693 135.348831,301.351196 134.902786,301.426270 
	C128.091187,302.572968 129.743210,308.690216 128.122589,313.233765 
	C125.966301,319.963623 123.104431,315.044983 120.286461,313.491547 
	C118.258286,309.437225 116.287094,306.015625 118.759842,301.968323 
	C119.103340,301.406097 118.831955,300.389038 118.679352,299.615234 
	C117.276939,292.503845 119.043144,290.064087 126.068825,288.842194 
	C132.836456,287.665192 137.628845,284.013153 139.739075,276.901245 
	C141.821442,273.547424 143.212555,269.982422 145.649307,267.406525 
	C148.308640,264.595337 149.587860,260.152466 154.601929,259.672882 
	C159.631363,259.191772 161.568939,255.754623 161.425690,250.685944 
	C162.574997,249.047531 163.273010,247.472107 164.324371,246.185410 
	C165.439331,244.820953 167.497192,243.971832 168.089783,242.479355 
	C170.793518,235.669876 173.874969,228.875641 173.087769,222.894211 
	C168.715393,218.927414 165.365509,215.888260 162.022125,212.405670 
	C162.441345,208.473846 162.637741,204.941803 163.330505,201.509949 
	C163.963196,198.375656 165.133347,195.349854 166.355240,192.155426 
	C166.778595,191.678864 166.913345,191.323120 167.012970,190.973450 
	C166.977814,190.979507 166.983841,191.050568 167.356537,191.016968 
	C169.501053,189.633118 171.539856,188.520386 172.993149,186.886765 
	C176.884567,182.512573 174.097565,177.124954 174.930450,171.866577 
	C177.347748,166.210938 177.329086,161.424438 172.052124,157.382141 
	C169.699203,152.522690 165.696625,151.273422 161.046585,151.234711 
	C150.112289,148.337204 139.142288,145.564819 128.266403,142.462540 
	C125.183609,141.583206 123.989174,142.452255 121.837303,144.790482 
	C118.274956,148.661316 113.471748,151.390167 108.582657,155.056671 
	C107.663750,144.205643 119.358109,135.092743 127.782372,136.182007 
	C137.876938,137.487244 148.122635,139.088989 158.196243,138.554031 
	C164.474136,138.220642 171.245239,140.528061 178.093918,136.761658 
	C186.852448,137.399139 188.013992,136.498840 187.573883,129.946259 
	C189.298584,120.161377 194.049423,117.236404 205.661469,119.143059 
	C208.757416,122.238335 211.432709,125.255150 210.456757,130.495438 
	C210.155823,133.157288 210.065491,135.100327 209.968292,137.190979 
	C213.995255,137.727859 217.526352,138.198624 221.057465,138.669388 
	C221.150192,138.332275 221.242935,137.995148 221.335678,137.658035 
	C218.951721,135.635849 216.567764,133.613663 213.241409,130.792084 
	C215.986206,131.208496 217.454422,131.431244 219.531769,131.746399 
	C218.499130,130.066650 217.814194,128.952454 217.129242,127.838272 
	C216.914032,126.328964 216.698822,124.819656 216.483612,123.310349 
	C218.431213,123.975143 220.378815,124.639946 223.007996,125.518860 
	C229.166214,127.276711 230.401077,132.890320 233.878525,136.352234 
	C236.253174,137.754364 238.470718,139.807816 241.034409,140.426254 
	C246.794632,141.815781 250.939529,144.844482 253.720825,150.716583 
	C250.439194,156.000366 245.459717,156.831665 240.336700,155.928406 
	C234.635834,154.923279 228.930252,155.025970 224.175919,157.846176 
	C222.010773,159.130508 221.706787,163.544495 220.547928,166.534775 
	C217.994614,173.123184 215.555893,179.759995 212.817947,186.270874 
	C211.710571,188.904205 210.368088,191.701523 208.365845,193.626831 
	C206.045776,195.857773 205.917587,197.743225 206.659149,200.642761 
	C208.388901,207.406189 211.494751,213.330261 216.045959,218.556427 
	C214.227264,223.530869 211.052444,226.852020 206.210297,229.530869 
	C201.385559,232.200089 197.590286,236.730164 192.914612,240.965195 
	C188.482193,246.441925 184.984161,251.957855 180.312515,256.173096 
	C176.697952,259.434570 176.397324,262.550018 177.306137,266.565704 
	C177.553406,267.658325 177.779037,268.755859 178.014618,269.851135 
z"/>
<path fill="#FBFCFC" opacity="1.000000" stroke="none" 
	d="
M160.914246,151.527832 
	C165.696625,151.273422 169.699203,152.522690 171.772003,157.601608 
	C166.668396,163.958206 161.259262,169.440231 156.882080,175.649734 
	C136.279297,204.876968 129.220123,237.268402 135.124130,272.512909 
	C135.550018,275.055237 136.052811,277.482819 139.508591,277.125885 
	C137.628845,284.013153 132.836456,287.665192 126.068825,288.842194 
	C119.043144,290.064087 117.276939,292.503845 118.679352,299.615234 
	C118.831955,300.389038 119.103340,301.406097 118.759842,301.968323 
	C116.287094,306.015625 118.258286,309.437225 119.995026,313.264130 
	C114.937973,313.612091 109.961136,313.850739 105.017014,313.550568 
	C90.354530,312.660370 82.930435,300.727295 88.634964,286.332947 
	C89.536255,284.905090 90.088524,284.058319 90.640793,283.211548 
	C95.165977,278.524139 100.647797,276.540100 107.173347,276.907318 
	C111.797882,277.167511 116.449432,276.947815 121.849533,276.911316 
	C122.744049,276.586578 122.877968,276.292877 123.011879,275.999176 
	C122.382462,264.923615 120.839653,253.810593 121.292244,242.779434 
	C122.739372,207.508530 136.333740,177.241989 160.914246,151.527832 
z"/>
<path fill="#E4E4E4" opacity="1.000000" stroke="none" 
	d="
M187.276611,130.061859 
	C188.013992,136.498840 186.852448,137.399139 178.469025,136.670822 
	C181.009903,134.514038 183.994614,132.345764 187.276611,130.061859 
z"/>
<path fill="#161522" opacity="1.000000" stroke="none" 
	d="
M400.779449,310.848022 
	C401.647095,309.504364 402.948395,308.201996 404.549011,306.727844 
	C405.169800,309.286682 404.382843,311.087494 400.779449,310.848022 
z"/>
<path fill="#161522" opacity="1.000000" stroke="none" 
	d="
M90.259323,283.185974 
	C90.088524,284.058319 89.536255,284.905090 88.775604,285.974670 
	C86.104675,283.933868 88.168694,283.623718 90.259323,283.185974 
z"/>
<path fill="#161522" opacity="1.000000" stroke="none" 
	d="
M392.937012,276.576355 
	C392.245911,276.907715 391.491882,276.930634 390.368530,276.869446 
	C390.957489,276.612885 391.915802,276.440399 392.937012,276.576355 
z"/>
<path fill="#161522" opacity="1.000000" stroke="none" 
	d="
M408.136780,300.966278 
	C407.886749,300.547943 407.926880,300.096100 408.082550,299.322052 
	C408.628632,299.370117 409.059235,299.740417 409.489838,300.110718 
	C409.135529,300.384735 408.781250,300.658783 408.136780,300.966278 
z"/>
<path fill="#161522" opacity="1.000000" stroke="none" 
	d="
M122.814316,276.086182 
	C122.877968,276.292877 122.744049,276.586578 122.313103,276.831665 
	C122.163460,276.527710 122.363686,276.324432 122.814316,276.086182 
z"/>
<path fill="#161522" opacity="1.000000" stroke="none" 
	d="
M361.861969,276.613770 
	C361.593384,276.717133 361.202087,276.651794 360.925171,276.294556 
	C361.309479,276.092102 361.542725,276.239563 361.861969,276.613770 
z"/>
<path fill="#171723" opacity="1.000000" stroke="none" 
	d="
M216.364716,218.401169 
	C211.494751,213.330261 208.388901,207.406189 206.659149,200.642761 
	C205.917587,197.743225 206.045776,195.857773 208.365845,193.626831 
	C210.368088,191.701523 211.710571,188.904205 212.817947,186.270874 
	C215.555893,179.759995 217.994614,173.123184 220.547928,166.534775 
	C221.706787,163.544495 222.010773,159.130508 224.175919,157.846176 
	C228.930252,155.025970 234.635834,154.923279 240.336700,155.928406 
	C245.459717,156.831665 250.439194,156.000366 253.933624,150.959381 
	C288.515656,158.821503 312.474213,187.143341 316.337158,218.158951 
	C306.448120,218.158951 296.710693,218.063126 286.975861,218.180237 
	C270.193207,218.382095 253.408157,218.591904 236.634750,219.130264 
	C234.136673,219.210449 231.696609,221.098068 228.164093,222.603699 
	C226.552719,220.758347 224.097565,217.946701 221.540710,215.018585 
	C219.693253,216.246094 218.188354,217.246002 216.364716,218.401169 
z"/>
<path fill="#5F19EB" opacity="1.000000" stroke="none" 
	d="
M234.337265,136.307068 
	C230.401077,132.890320 229.166214,127.276711 223.403549,125.597595 
	C252.285080,114.403038 280.558990,117.095917 308.025269,131.134445 
	C334.076569,144.449768 349.190002,166.204208 355.850586,194.193146 
	C357.528290,201.243164 358.266113,208.516846 359.552246,216.401337 
	C348.912628,216.401337 339.180908,216.401337 329.394470,216.401337 
	C320.438568,161.291931 270.511749,134.972382 234.337265,136.307068 
z"/>
<path fill="#04C066" opacity="1.000000" stroke="none" 
	d="
M338.025391,241.316895 
	C324.112091,241.823120 310.198792,242.329346 295.426178,242.866837 
	C295.426178,254.384323 295.426178,265.449860 295.426178,276.730408 
	C287.277496,276.730408 280.006470,276.730408 272.166962,276.730408 
	C272.166962,265.897644 272.166962,255.004395 272.166962,244.072571 
	C262.014771,244.072571 252.425522,243.933029 242.842072,244.108566 
	C231.358444,244.318893 219.880966,244.855621 208.397598,245.097824 
	C206.711990,245.133377 205.008530,244.322922 203.313354,243.903915 
	C204.106827,242.217377 204.464050,239.992935 205.767807,238.935562 
	C212.082916,233.813828 218.652176,229.005432 223.558487,225.280243 
	C227.342255,226.866821 229.824631,228.812836 232.298004,228.801483 
	C251.925232,228.711380 271.552612,228.328827 291.176361,227.880707 
	C315.141113,227.333466 339.100861,226.548050 363.067261,226.116699 
	C365.948151,226.064850 368.857178,227.578796 371.753174,228.367004 
	C369.737610,230.505829 368.038818,233.133606 365.643188,234.685837 
	C359.939728,238.381332 353.906921,241.568436 347.711517,245.130905 
	C347.767212,238.171051 343.060394,241.186646 339.155579,241.101959 
	C338.469940,241.171295 338.025391,241.316895 338.025391,241.316895 
z"/>
<path fill="#5F19EB" opacity="1.000000" stroke="none" 
	d="
M189.981934,313.646667 
	C197.253662,313.073242 203.266113,314.465179 209.337494,318.110443 
	C225.289139,327.687714 242.706604,332.742920 262.147339,332.103424 
	C262.147339,336.217804 262.366241,340.167572 262.013214,344.065521 
	C261.908051,345.226746 260.402863,346.807098 259.195374,347.242798 
	C228.339294,358.376312 199.927505,353.195160 174.057724,333.639709 
	C166.836014,328.180664 160.509491,321.537415 153.772308,315.437439 
	C154.020721,314.840546 154.269135,314.243683 154.517548,313.646790 
	C166.173584,313.646790 177.829605,313.646790 189.981934,313.646667 
z"/>
<path fill="#04C065" opacity="1.000000" stroke="none" 
	d="
M293.833649,326.009583 
	C293.542023,341.645905 293.410858,356.790100 292.896149,371.921234 
	C292.608521,380.375946 290.214325,388.289459 284.843079,395.078827 
	C284.381073,395.662842 284.108856,396.396942 282.980957,398.476257 
	C294.283691,397.608246 304.427399,396.829224 314.276825,396.072845 
	C309.898254,403.018707 292.972290,411.569885 283.557770,411.462555 
	C274.978455,411.364685 266.397125,411.441833 256.199219,411.441833 
	C271.175201,397.920105 271.852814,381.289062 271.975586,364.553314 
	C272.098724,347.767700 272.002655,330.980499 272.002655,313.915161 
	C279.337341,313.915161 286.263031,313.915161 293.833801,313.915161 
	C293.833801,317.716766 293.833801,321.614410 293.833649,326.009583 
z"/>
<path fill="#171723" opacity="1.000000" stroke="none" 
	d="
M178.354706,269.969849 
	C177.779037,268.755859 177.553406,267.658325 177.306137,266.565704 
	C176.397324,262.550018 176.697952,259.434570 180.312515,256.173096 
	C184.984161,251.957855 188.482193,246.441925 192.732559,241.265228 
	C193.568192,251.079071 198.041672,255.311386 208.184372,255.038971 
	C225.938004,254.562103 243.687592,253.934311 261.803589,253.358170 
	C261.803589,261.226105 261.803589,268.783722 261.803589,276.960999 
	C260.187561,276.960999 258.422272,276.960999 256.656952,276.960999 
	C235.211899,276.960999 213.764572,276.787903 192.323257,277.070770 
	C186.213806,277.151337 180.880188,277.052826 178.354706,269.969849 
z"/>
<path fill="#611CEB" opacity="1.000000" stroke="none" 
	d="
M338.011536,241.693893 
	C338.025391,241.316895 338.469940,241.171295 338.702698,241.193344 
	C342.398376,245.232513 345.857147,249.253189 349.331024,253.260803 
	C349.651428,253.630478 350.067780,253.916962 350.666412,254.440353 
	C352.209747,253.745972 353.829224,253.017319 355.448700,252.288681 
	C355.895111,252.465088 356.341492,252.641510 356.787903,252.817917 
	C353.488159,260.572327 350.229340,268.344910 346.805786,276.044281 
	C346.550415,276.618683 345.118042,276.912537 344.227966,276.922913 
	C337.926880,276.996552 331.624542,276.962097 325.035278,276.962097 
	C326.580353,268.789459 327.972717,260.890076 329.698456,253.064194 
	C329.885559,252.215515 331.951141,251.415817 333.231323,251.247635 
	C336.102234,250.870483 339.027252,250.905228 341.497925,250.792068 
	C340.211853,247.587708 339.104767,244.829300 338.011536,241.693893 
z"/>
<path fill="#0FC36C" opacity="1.000000" stroke="none" 
	d="
M212.213837,300.943420 
	C212.213867,295.507202 212.213867,290.562164 212.213867,284.956848 
	C214.489365,284.956848 216.410614,285.047729 218.320435,284.938660 
	C222.818542,284.681763 224.639740,287.116211 224.775146,291.239838 
	C224.862122,293.888702 224.827072,296.541718 224.835556,299.192932 
	C224.868820,309.583099 223.526245,310.759491 212.213806,309.651825 
	C212.213806,306.960510 212.213806,304.197571 212.213837,300.943420 
M219.845123,303.114044 
	C219.284973,298.616302 221.172394,293.765076 217.958984,289.592468 
	C217.258194,294.339844 217.240631,299.038757 217.361267,303.734131 
	C217.364227,303.849426 218.900986,303.925354 219.845123,303.114044 
z"/>
<path fill="#06C067" opacity="1.000000" stroke="none" 
	d="
M230.139526,285.046143 
	C232.102310,284.985168 233.599319,285.017426 235.093643,284.968048 
	C239.335571,284.827850 241.122757,287.037048 241.101471,291.090729 
	C241.082260,294.746979 241.175095,298.404114 241.131241,302.059845 
	C241.050446,308.796570 239.711334,310.043335 232.790421,310.002441 
	C231.665588,309.995819 230.540710,310.001556 228.568954,310.001556 
	C228.948837,301.430573 229.310684,293.266357 230.139526,285.046143 
M233.955948,297.548706 
	C233.955948,300.068665 233.955948,302.588593 233.955948,305.108551 
	C234.442902,305.094879 234.929855,305.081177 235.416809,305.067505 
	C235.416809,299.926849 235.416809,294.786194 235.416809,289.645538 
	C234.929855,289.628387 234.442886,289.611237 233.955933,289.594086 
	C233.955933,291.934326 233.955933,294.274567 233.955948,297.548706 
z"/>
<path fill="#1D1C29" opacity="1.000000" stroke="none" 
	d="
M313.240753,271.289307 
	C312.576660,276.569824 309.863647,278.040771 305.117493,276.578247 
	C305.117493,268.738007 305.117493,260.834290 305.117493,252.462296 
	C309.103943,252.462296 312.817963,252.462296 317.623505,252.462296 
	C316.210358,258.599915 314.793854,264.751953 313.240753,271.289307 
z"/>
<path fill="#0FC36C" opacity="1.000000" stroke="none" 
	d="
M303.495483,285.069824 
	C310.228333,284.825043 311.269806,285.698578 311.833527,292.522949 
	C309.466217,291.785919 307.445557,291.156769 304.621582,290.277527 
	C305.758270,291.853455 306.798584,293.218689 307.755310,294.640167 
	C309.203705,296.792053 311.308197,298.823792 311.837067,301.195770 
	C312.582428,304.538635 312.589661,308.435944 308.247467,309.922638 
	C304.236145,311.296021 300.853516,309.197388 299.221497,304.479919 
	C298.912384,303.586456 299.069519,302.531738 298.997131,301.308716 
	C300.693451,301.098145 302.286407,300.900421 304.475647,300.628662 
	C302.553802,295.482422 295.558228,290.690643 303.495483,285.069824 
z"/>
<path fill="#13C46F" opacity="1.000000" stroke="none" 
	d="
M296.633972,292.945435 
	C296.418488,297.749176 294.713623,300.715057 289.370605,300.242493 
	C289.370605,303.453979 289.370605,306.395660 289.370605,309.702087 
	C287.648895,309.828094 286.249695,309.930450 284.515137,310.057373 
	C284.515137,301.698364 284.515137,293.658478 284.515137,285.629730 
	C293.517212,283.674225 295.573944,284.856415 296.633972,292.945435 
z"/>
<path fill="#0AC269" opacity="1.000000" stroke="none" 
	d="
M251.793213,290.066162 
	C250.864334,291.544800 250.346924,293.067017 249.780533,294.733307 
	C248.441193,294.733307 246.999603,294.733307 245.587631,294.733307 
	C244.638245,288.391296 246.328659,285.307617 250.822815,284.938171 
	C257.105530,284.421692 260.252838,289.744781 257.246185,296.300629 
	C255.907516,299.219574 253.806808,301.789032 251.793564,304.918762 
	C253.926315,305.066010 255.527130,305.176544 257.624481,305.321350 
	C257.806335,306.584198 258.003235,307.951324 258.252869,309.684906 
	C253.721634,309.684906 249.509399,309.684906 243.854889,309.684906 
	C245.942352,305.946564 247.582809,302.854553 249.370636,299.850220 
	C251.167786,296.830231 254.276108,294.238922 251.793213,290.066162 
z"/>
<path fill="#1D1C29" opacity="1.000000" stroke="none" 
	d="
M237.976501,317.045837 
	C234.964859,316.154175 232.351883,315.329254 229.738907,314.504364 
	C229.786194,314.283875 229.833466,314.063385 229.880753,313.842896 
	C240.496231,313.842896 251.111710,313.842896 261.950714,313.842896 
	C261.950714,315.720001 261.950714,317.482941 261.950714,320.792114 
	C253.834503,319.525360 246.104828,318.318970 237.976501,317.045837 
z"/>
<path fill="#04C065" opacity="1.000000" stroke="none" 
	d="
M269.013153,306.756531 
	C269.281281,311.643097 266.266205,309.425995 264.272369,310.146332 
	C263.202972,301.535370 266.189972,293.006195 259.999786,285.245422 
	C264.663116,285.245422 268.077881,285.245422 272.850983,285.245422 
	C267.699463,291.957550 269.138489,299.212891 269.013153,306.756531 
z"/>
<path fill="#13C46F" opacity="1.000000" stroke="none" 
	d="
M280.187988,294.036133 
	C280.188019,299.497894 280.188019,304.465240 280.188019,309.722168 
	C278.481018,309.722168 277.106049,309.722168 275.470428,309.722168 
	C275.470428,301.632172 275.470428,293.703674 275.470428,285.348877 
	C276.814117,285.201355 278.186493,285.050690 280.187988,284.830933 
	C280.187988,287.988983 280.187988,290.765381 280.187988,294.036133 
z"/>
<path fill="#5830DC" opacity="1.000000" stroke="none" 
	d="
M216.757599,127.957397 
	C217.814194,128.952454 218.499130,130.066650 219.531769,131.746399 
	C217.454422,131.431244 215.986206,131.208496 213.241409,130.792084 
	C216.567764,133.613663 218.951721,135.635849 221.335678,137.658035 
	C221.242935,137.995148 221.150192,138.332275 221.057465,138.669388 
	C217.526352,138.198624 213.995255,137.727859 209.968292,137.190979 
	C210.065491,135.100327 210.155823,133.157288 210.427383,130.923492 
	C212.534393,129.780685 214.460175,128.928604 216.757599,127.957397 
z"/>
<path fill="#E4E4E4" opacity="1.000000" stroke="none" 
	d="
M181.930496,294.007446 
	C182.106766,287.410889 186.594894,283.440216 193.233917,283.811310 
	C194.659637,283.890991 196.122482,283.133545 197.564621,283.147034 
	C198.746490,283.158051 199.923004,283.741760 201.199036,284.098755 
	C198.871506,285.072601 196.940414,285.880585 194.545410,287.035461 
	C192.231247,288.603668 190.381042,289.824951 188.197617,291.075256 
	C186.741394,291.004028 185.618393,290.903839 184.301147,290.786316 
	C183.862259,292.198669 183.428970,293.593048 182.773010,294.878967 
	C182.276581,294.570709 182.069977,294.316345 181.930496,294.007446 
z"/>
<path fill="#D4D4D4" opacity="1.000000" stroke="none" 
	d="
M200.104935,309.936829 
	C196.538895,309.787292 192.972855,309.637726 189.186874,308.809631 
	C188.933273,306.109650 188.899597,304.088196 189.320190,302.082703 
	C192.475754,302.051056 195.177094,302.003387 197.850952,302.302307 
	C196.250732,304.051025 194.938766,305.335449 197.715271,306.995026 
	C198.733978,307.603973 199.320999,308.935150 200.104935,309.936829 
z"/>
<path fill="#611CEB" opacity="1.000000" stroke="none" 
	d="
M307.969971,313.639160 
	C310.854126,313.638367 313.268219,313.638367 315.682343,313.638367 
	C315.838867,314.016510 315.995361,314.394653 316.151886,314.772797 
	C312.424408,317.820953 308.696960,320.869110 304.857605,324.008728 
	C302.627106,317.257935 303.460449,314.248169 307.969971,313.639160 
z"/>
<path fill="#1D1D1D" opacity="1.000000" stroke="none" 
	d="
M188.530823,291.046265 
	C190.381042,289.824951 192.231247,288.603668 194.428070,287.423523 
	C195.601044,287.976196 196.427414,288.487701 197.768677,289.452698 
	C198.540710,290.084015 198.797821,290.261841 198.702942,290.634308 
	C197.627930,292.451172 196.904922,294.073395 196.246948,295.549683 
	C194.165009,295.549683 192.359558,295.549683 190.353088,295.549683 
	C189.742233,294.040039 189.136520,292.543121 188.530823,291.046265 
z"/>
<path fill="#131313" opacity="1.000000" stroke="none" 
	d="
M200.445969,309.832489 
	C199.320999,308.935150 198.733978,307.603973 197.715271,306.995026 
	C194.938766,305.335449 196.250732,304.051025 198.125900,302.045654 
	C200.266235,300.906677 202.104156,300.370911 204.186829,300.157166 
	C204.849777,302.044617 205.267960,303.610046 205.686127,305.175507 
	C204.053085,306.693054 202.420044,308.210602 200.445969,309.832489 
z"/>
<path fill="#131313" opacity="1.000000" stroke="none" 
	d="
M188.865936,302.066711 
	C188.899597,304.088196 188.933273,306.109650 188.965744,308.497742 
	C184.478165,308.069031 182.453003,305.189178 182.427277,300.395935 
	C182.853241,299.668121 183.018005,299.381561 183.492065,299.250977 
	C185.489548,300.293549 187.177734,301.180145 188.865936,302.066711 
z"/>
<path fill="#611CEB" opacity="1.000000" stroke="none" 
	d="
M160.390701,276.874512 
	C161.063324,274.836700 161.967880,272.682129 163.400330,270.968994 
	C164.036255,270.208496 165.738220,270.339386 167.003937,270.411926 
	C167.359787,272.636780 167.667969,274.515350 168.065323,276.937347 
	C165.627228,276.937347 163.232346,276.937347 160.390701,276.874512 
z"/>
<path fill="#C2C2C2" opacity="1.000000" stroke="none" 
	d="
M206.060059,305.173401 
	C205.267960,303.610046 204.849777,302.044617 204.210739,299.826080 
	C204.661499,297.778625 205.333115,296.384277 206.363144,295.098663 
	C207.464691,295.123474 208.207825,295.039551 208.950958,294.955627 
	C208.999481,297.065094 209.388580,299.243469 208.980499,301.260559 
	C208.693726,302.677856 207.321503,303.875580 206.060059,305.173401 
z"/>
<path fill="#1D1C29" opacity="1.000000" stroke="none" 
	d="
M209.008270,294.583313 
	C208.207825,295.039551 207.464691,295.123474 206.289673,294.794525 
	C205.042465,293.192688 204.227142,292.003723 203.309387,290.510193 
	C203.082779,289.795929 202.958557,289.386230 202.834351,288.976562 
	C202.834351,288.115692 202.834351,287.254791 202.834351,286.393921 
	C203.194855,286.129852 203.555359,285.865814 203.915863,285.601746 
	C205.632431,288.471497 207.349014,291.341248 209.008270,294.583313 
z"/>
<path fill="#FAFCFC" opacity="1.000000" stroke="none" 
	d="
M183.182770,299.095001 
	C183.018005,299.381561 182.853241,299.668121 182.441223,300.012329 
	C179.000900,298.586395 179.329926,296.520538 181.576752,294.101807 
	C182.069977,294.316345 182.276581,294.570709 182.738708,295.210083 
	C183.012283,296.798096 183.097519,297.946533 183.182770,299.095001 
z"/>
<path fill="#E4E4E4" opacity="1.000000" stroke="none" 
	d="
M202.419952,288.970825 
	C202.958557,289.386230 203.082779,289.795929 202.975937,290.579773 
	C201.514908,290.782532 200.284912,290.611084 199.054932,290.439636 
	C198.797821,290.261841 198.540710,290.084015 198.062866,289.492432 
	C199.229950,289.040802 200.617752,289.002930 202.419952,288.970825 
z"/>
<path fill="#5F1AEB" opacity="1.000000" stroke="none" 
	d="
M139.739075,276.901245 
	C136.052811,277.482819 135.550018,275.055237 135.124130,272.512909 
	C129.220123,237.268402 136.279297,204.876968 156.882080,175.649734 
	C161.259262,169.440231 166.668396,163.958206 171.882187,157.921539 
	C177.329086,161.424438 177.347748,166.210938 174.660843,172.046646 
	C171.868347,178.756195 169.426102,184.903381 166.983841,191.050568 
	C166.983841,191.050568 166.977814,190.979507 166.657867,190.942108 
	C166.247498,191.361893 166.157074,191.819061 166.066650,192.276245 
	C165.133347,195.349854 163.963196,198.375656 163.330505,201.509949 
	C162.637741,204.941803 162.441345,208.473846 161.678833,212.645721 
	C161.262619,225.844788 161.196228,238.360367 161.129822,250.875961 
	C161.568939,255.754623 159.631363,259.191772 154.601929,259.672882 
	C149.587860,260.152466 148.308640,264.595337 145.649307,267.406525 
	C143.212555,269.982422 141.821442,273.547424 139.739075,276.901245 
z"/>
<path fill="#FAFCFC" opacity="1.000000" stroke="none" 
	d="
M161.425690,250.685944 
	C161.196228,238.360367 161.262619,225.844788 161.672318,213.089142 
	C165.365509,215.888260 168.715393,218.927414 173.087769,222.894211 
	C173.874969,228.875641 170.793518,235.669876 168.089783,242.479355 
	C167.497192,243.971832 165.439331,244.820953 164.324371,246.185410 
	C163.273010,247.472107 162.574997,249.047531 161.425690,250.685944 
z"/>
<path fill="#F0F2FA" opacity="1.000000" stroke="none" 
	d="
M167.356537,191.016968 
	C169.426102,184.903381 171.868347,178.756195 174.580200,172.428940 
	C174.097565,177.124954 176.884567,182.512573 172.993149,186.886765 
	C171.539856,188.520386 169.501053,189.633118 167.356537,191.016968 
z"/>
<path fill="#F0F2FA" opacity="1.000000" stroke="none" 
	d="
M166.355255,192.155426 
	C166.157074,191.819061 166.247498,191.361893 166.693024,190.936035 
	C166.913345,191.323120 166.778595,191.678864 166.355255,192.155426 
z"/>
<path fill="#B8EDD4" opacity="1.000000" stroke="none" 
	d="
M219.783752,303.566833 
	C218.900986,303.925354 217.364227,303.849426 217.361267,303.734131 
	C217.240631,299.038757 217.258194,294.339844 217.958984,289.592468 
	C221.172394,293.765076 219.284973,298.616302 219.783752,303.566833 
z"/>
<path fill="#FAFCFC" opacity="1.000000" stroke="none" 
	d="
M233.955933,297.081757 
	C233.955933,294.274567 233.955933,291.934326 233.955933,289.594086 
	C234.442886,289.611237 234.929855,289.628387 235.416809,289.645538 
	C235.416809,294.786194 235.416809,299.926849 235.416809,305.067505 
	C234.929855,305.081177 234.442902,305.094879 233.955948,305.108551 
	C233.955948,302.588593 233.955948,300.068665 233.955933,297.081757 
z"/>
<path fill="#FBFCFC" opacity="1.000000" stroke="none" 
	d="
M198.702942,290.634308 
	C200.284912,290.611084 201.514908,290.782532 203.078339,290.884369 
	C204.227142,292.003723 205.042465,293.192688 205.931244,294.685791 
	C205.333115,296.384277 204.661499,297.778625 203.965973,299.504089 
	C202.104156,300.370911 200.266235,300.906677 198.153381,301.699097 
	C195.177094,302.003387 192.475754,302.051056 189.320190,302.082703 
	C187.177734,301.180145 185.489548,300.293549 183.492050,299.250977 
	C183.097519,297.946533 183.012283,296.798096 182.961365,295.318542 
	C183.428970,293.593048 183.862259,292.198669 184.301147,290.786316 
	C185.618393,290.903839 186.741394,291.004028 188.197601,291.075226 
	C189.136520,292.543121 189.742233,294.040039 190.353088,295.549683 
	C192.359558,295.549683 194.165009,295.549683 196.246948,295.549683 
	C196.904922,294.073395 197.627930,292.451172 198.702942,290.634308 
M198.630951,298.560516 
	C198.630951,298.560516 198.411667,298.444366 198.411667,298.444366 
	C198.411667,298.444366 198.451508,298.697968 198.630951,298.560516 
z"/>
<path fill="#E4E4E4" opacity="1.000000" stroke="none" 
	d="
M198.541229,298.629242 
	C198.451508,298.697968 198.411667,298.444366 198.411667,298.444366 
	C198.411667,298.444366 198.630951,298.560516 198.541229,298.629242 
z"/>
</svg>